Coordinates
version=1
nRows=10
nColumns=33
inDegrees=yes

Units are S.I. units (second, meters, Newtons, ...)
Angles are in degrees.

endheader
time	ground_thorax_rot_x	ground_thorax_rot_y	ground_thorax_rot_z	ground_thorax_tx	ground_thorax_ty	ground_thorax_tz	clav_prot_r	clav_elev_r	scapula_abduction_r	scapula_elevation_r	scapula_upward_rot_r	scapula_winging_r	shoulder_elv_r	plane_of_elev_r	axial_rot_r	elbow_flexion_r	pro_sup_r	wrist_flex_r	wrist_dev_r	clav_prot_l	clav_elev_l	scapula_abduction_l	scapula_elevation_l	scapula_upward_rot_l	scapula_winging_l	shoulder_elv_l	plane_of_elev_l	axial_rot_l	elbow_flexion_l	pro_sup_l	wrist_flex_l	wrist_dev_l
      6.01000000	    -20.55775047	    -35.65108392	     55.76107152	    -42.58433890	    783.03008616	     12.42995356	      7.61153328	    -45.00000000	     36.14832717	    -45.00000000	    -45.00000000	  -2615.43930117	  -2638.04578769	    151.37282725	   -107.57293760	    728.98484854	     26.29238988	     16.79195639	     10.83248546	     13.39462600	     36.93056130	    -28.65246783	    -45.00000000	    -45.00000000	   1513.21734876	  -2620.32791043	    136.45503824	   -179.99999979	      6.31135459	     46.95800631	      9.28298940	    -21.93785013
      6.02000000	    -20.67269679	    -35.61386025	     55.62661822	    -42.94576427	    782.86411274	     12.47029931	      7.59585907	    -45.00000000	     36.14775150	    -45.00000000	    -45.00000000	  -2615.48519505	  -2638.09462479	    151.31659581	   -107.74694160	    729.00335005	     26.72521075	     16.99921902	     10.74702174	     13.67290890	     37.00919953	    -28.69356953	    -45.00000000	    -45.00000000	   1513.32359666	  -2620.37194011	    136.34815120	   -179.99999979	      6.30440028	     46.38555713	      9.25002403	    -21.89626078
      6.03000000	    -20.73898890	    -35.61125740	     55.58493742	    -43.35065304	    782.64508413	     12.50601072	      7.55097589	    -45.00000000	     35.99999321	    -45.00000000	    -45.00000000	  -2615.45797159	  -2637.99632310	    151.33806805	   -107.91461327	    729.11749656	     27.09359674	     16.83348389	     10.83828470	     13.47290994	     36.96371600	    -28.74945814	    -45.00000000	    -45.00000000	   1513.20532320	  -2620.32657540	    136.51557601	   -179.99999979	      6.26061022	     45.99558688	      9.49095638	    -21.88074405
      6.04000000	    -20.78946910	    -35.68602026	     55.42965227	    -43.79339894	    782.38107330	     12.53820063	      7.49896784	    -45.00000000	     36.20974281	    -45.00000000	    -45.00000000	  -2615.50474384	  -2638.13641257	    151.25810726	   -108.00744031	    729.13243348	     27.34246224	     17.18364831	     10.70858986	     13.68889111	     36.98495608	    -28.57709908	    -45.00000000	    -45.00000000	   1513.52852392	  -2620.27681765	    136.15699942	   -179.99999979	      6.24721260	     45.64340848	      9.35968829	    -21.81221183
      6.05000000	    -20.84643742	    -35.62527246	     55.40465304	    -44.27240100	    782.07807311	     12.56627814	      7.55809064	    -45.00000000	     36.05675324	    -45.00000000	    -45.00000000	  -2615.42567421	  -2637.97923945	    151.33358701	   -108.07985261	    729.24450342	     27.61556251	     16.86990900	     10.87189441	     13.48816062	     36.97934992	    -28.78827232	    -45.00000000	    -45.00000000	   1513.21738801	  -2620.38497166	    136.69024289	   -179.99999979	      6.30636659	     45.39493126	      9.61027654	    -21.87633026
      6.06000000	    -20.90595648	    -35.65057651	     55.26659534	    -44.78199925	    781.74684113	     12.58912897	      7.49068284	    -45.00000000	     36.14960439	    -45.00000000	    -45.00000000	  -2615.51141334	  -2638.11713555	    151.19577944	   -108.14886782	    729.11428107	     27.77582222	     17.18905087	     10.71887760	     13.64234262	     36.98542092	    -28.58716287	    -45.00000000	    -45.00000000	   1513.52466589	  -2620.27453547	    136.17922083	   -179.99999979	      6.01523756	     45.21267004	      9.51343834	    -21.74338472
      6.07000000	    -21.02815165	    -35.53318679	     55.17065761	    -45.32325827	    781.39558132	     12.60486235	      7.54304737	    -45.00000000	     36.12476151	    -45.00000000	    -45.00000000	  -2615.45687125	  -2637.93968027	    151.36262679	   -108.09051353	    729.26417322	     27.95937838	     16.89323754	     10.91791355	     13.45377992	     37.03052315	    -28.88345613	    -45.00000000	    -45.00000000	   1513.10412659	  -2620.38905744	    136.78591820	   -179.99999979	      6.11353163	     45.09392138	      9.70619117	    -21.84586630
      6.08000000	    -20.99639035	    -35.62611455	     55.13505503	    -45.89264993	    781.03647979	     12.61259973	      7.47386040	    -45.00000000	     36.15463937	    -45.00000000	    -45.00000000	  -2615.51008080	  -2638.03503862	    151.24956722	   -108.25813359	    729.15166837	     28.04608586	     17.18869150	     10.73902371	     13.62150899	     36.99091017	    -28.64824536	    -45.00000000	    -45.00000000	   1513.55467473	  -2620.33967655	    136.31232800	   -179.99999979	      5.96658697	     45.00059941	      9.60652387	    -21.74285437
      6.09000000	    -21.20242124	    -35.43485195	     54.95036178	    -46.49317669	    780.67775894	     12.61193577	      7.57052969	    -45.00000000	     36.04275548	    -45.00000000	    -45.00000000	  -2615.57609882	  -2637.91788414	    151.22106974	   -108.12078954	    729.29292302	     28.18859279	     16.96439155	     10.90233294	     13.46773553	     37.03934372	    -28.79803166	    -45.00000000	    -45.00000000	   1513.24338749	  -2620.22675664	    136.61762016	   -179.99999979	      6.09873484	     44.96816999	      9.70908488	    -21.82219071
      6.10000000	    -21.16161587	    -35.53609077	     54.95839888	    -47.12676438	    780.32854188	     12.60418843	      7.43705024	    -45.00000000	     36.10509052	    -45.00000000	    -45.00000000	  -2615.57087807	  -2637.97246809	    151.23264200	   -108.28072026	    729.17000463	     28.24689785	     17.22976710	     10.67060823	     13.65279603	     36.96994064	    -28.68446185	    -45.00000000	    -45.00000000	   1513.73087817	  -2620.30842550	    136.21632716	   -179.99999979	      5.93098176	     44.97554358	      9.61565747	    -21.72283668
